<svg width="64" height="9" viewBox="0 0 64 9" version="1.1" xmlns="http://www.w3.org/2000/svg" xmlns:xlink="http://www.w3.org/1999/xlink">
<title>NoviceDock</title>
<desc>Created using Figma</desc>
<g id="Canvas" transform="matrix(0.0491929 0 0 0.0491929 -780.692 9.69101)">
<g id="NoviceDock">
<use xlink:href="#path0_fill" transform="translate(15864 -305)" fill="#2A324B"/>
</g>
</g>
<defs>
<path id="path0_fill" d="M 9.216 126.792C 8.448 126.792 8.064 125.384 8.064 122.568C 8.064 119.496 8.32 117.704 8.832 117.192C 12.928 117.448 17.28 117.832 21.888 118.344C 26.496 118.856 32.128 119.112 38.784 119.112C 45.696 119.112 54.528 118.472 65.28 117.192C 69.888 127.688 88.832 152.648 122.112 192.072C 130.56 202.312 138.624 212.296 146.304 222.024C 146.816 221.256 147.072 219.848 147.072 217.8L 147.072 164.424C 147.072 149.832 146.176 138.952 144.384 131.784C 142.592 128.2 135.68 126.408 123.648 126.408C 123.392 126.408 123.136 125.128 122.88 122.568C 122.88 120.008 123.136 118.088 123.648 116.808C 129.536 117.32 134.656 117.832 139.008 118.344C 143.616 118.856 148.864 119.112 154.752 119.112C 160.64 119.112 171.264 118.344 186.624 116.808C 186.88 117.576 187.008 119.112 187.008 121.416C 187.008 123.72 186.624 125.512 185.856 126.792C 179.456 126.792 174.464 127.432 170.88 128.712C 167.552 129.992 165.632 131.144 165.12 132.168C 164.608 133.192 164.224 134.984 163.968 137.544C 163.712 140.104 163.456 142.92 163.2 145.992C 162.688 152.136 162.432 158.024 162.432 163.656L 162.432 249.672C 162.432 263.496 162.816 275.4 163.584 285.384C 163.072 285.896 162.048 286.152 160.512 286.152L 157.056 286.152C 154.496 286.152 151.936 284.232 149.376 280.392L 46.08 153.288L 46.08 245.064C 46.08 255.304 46.976 263.496 48.768 269.64C 50.048 272.712 55.68 274.888 65.664 276.168C 67.712 276.424 68.992 276.552 69.504 276.552C 70.272 277.832 70.656 279.624 70.656 281.928C 70.656 283.976 70.528 285.384 70.272 286.152C 54.912 284.616 44.288 283.848 38.4 283.848C 32.512 283.848 27.264 284.104 22.656 284.616C 18.304 285.128 13.184 285.64 7.296 286.152C 6.784 284.872 6.528 282.952 6.528 280.392C 6.784 277.832 7.04 276.552 7.296 276.552C 12.672 276.552 17.28 275.784 21.12 274.248C 24.96 272.712 27.264 271.176 28.032 269.64C 29.824 265.544 30.72 257.096 30.72 244.296L 30.72 154.824C 30.72 140.232 28.16 131.912 23.04 129.864C 18.432 127.816 13.824 126.792 9.216 126.792ZM 253.306 182.088C 241.786 182.088 235.387 191.56 234.107 210.504C 233.595 215.624 233.339 220.744 233.339 225.864C 233.339 230.984 233.722 236.616 234.49 242.76C 235.514 248.648 237.179 254.024 239.483 258.888C 244.347 270.408 250.875 276.168 259.067 276.168C 271.099 276.168 277.882 266.824 279.418 248.136C 279.674 243.272 279.803 238.28 279.803 233.16C 279.803 228.04 279.291 222.408 278.267 216.264C 277.243 210.12 275.578 204.616 273.274 199.752C 268.411 187.976 261.755 182.088 253.306 182.088ZM 256.379 171.72C 265.083 171.72 273.019 173.128 280.187 175.944C 287.611 178.76 294.01 182.728 299.386 187.848C 310.394 198.6 315.899 212.04 315.899 228.168C 315.899 244.04 310.138 257.864 298.618 269.64C 287.611 281.16 273.659 286.92 256.762 286.92C 239.099 286.92 224.763 281.416 213.755 270.408C 202.746 259.4 197.243 245.96 197.243 230.088C 197.243 214.472 202.874 200.776 214.138 189C 225.403 177.48 239.483 171.72 256.379 171.72ZM 398.198 172.872C 405.366 173.896 414.07 174.408 424.31 174.408C 434.806 174.408 443.638 173.896 450.806 172.872C 451.318 173.384 451.574 174.792 451.574 177.096C 451.83 179.4 451.574 181.064 450.806 182.088C 444.918 182.088 440.182 183.112 436.598 185.16C 433.27 186.952 431.222 188.744 430.454 190.536L 391.286 273.48C 386.422 282.952 382.71 287.688 380.15 287.688C 379.382 287.688 378.358 287.048 377.078 285.768L 331.766 191.688C 329.974 187.848 327.03 185.288 322.934 184.008C 319.094 182.728 316.662 182.088 315.638 182.088C 314.87 181.064 314.614 179.528 314.87 177.48C 314.87 175.176 315.126 173.64 315.638 172.872C 317.43 173.128 321.27 173.384 327.158 173.64C 333.302 173.896 337.91 174.152 340.982 174.408C 344.31 174.408 350.326 174.408 359.03 174.408C 367.99 174.408 375.542 173.896 381.686 172.872C 382.454 173.384 382.838 174.92 382.838 177.48C 382.838 179.784 382.454 181.32 381.686 182.088C 380.15 182.088 377.846 182.6 374.774 183.624C 369.398 185.16 366.71 186.952 366.71 189L 366.71 190.536C 366.71 191.304 366.966 192.072 367.478 192.84L 393.59 242.76L 413.558 198.216C 415.35 193.608 416.246 190.536 416.246 189C 416.246 187.464 415.35 186.184 413.558 185.16C 412.022 184.136 410.102 183.368 407.798 182.856C 404.214 182.344 401.014 182.088 398.198 182.088C 397.686 181.576 397.43 180.168 397.43 177.864C 397.43 175.304 397.686 173.64 398.198 172.872ZM 509.65 176.328C 509.138 177.608 508.242 182.344 506.962 190.536L 506.962 248.136C 506.962 260.936 507.346 268.36 508.114 270.408C 508.882 272.2 509.906 273.48 511.186 274.248C 512.466 274.76 513.874 275.272 515.41 275.784C 517.97 276.296 520.658 276.552 523.474 276.552C 523.986 277.576 524.242 279.24 524.242 281.544C 524.242 283.848 523.986 285.384 523.474 286.152C 510.674 284.872 499.666 284.232 490.45 284.232C 479.954 284.232 468.306 284.872 455.506 286.152C 454.994 285.384 454.738 283.848 454.738 281.544C 454.738 279.24 454.994 277.576 455.506 276.552C 460.882 276.552 464.85 276.04 467.41 275.016C 469.97 273.736 471.506 272.712 472.018 271.944C 473.298 268.872 473.938 260.936 473.938 248.136L 473.938 215.112C 473.938 213.064 473.682 209.992 473.17 205.896C 472.658 201.8 472.146 199.24 471.634 198.216C 469.842 194.888 464.466 193.224 455.506 193.224C 454.994 192.968 454.738 191.688 454.738 189.384C 454.994 186.824 455.378 185.544 455.89 185.544C 465.618 184.776 475.09 182.984 484.306 180.168C 493.522 177.096 500.562 174.408 505.426 172.104C 506.194 172.36 507.09 173 508.114 174.024C 509.138 175.048 509.65 175.816 509.65 176.328ZM 469.714 128.712C 469.714 123.592 471.378 119.368 474.706 116.04C 478.29 112.456 482.642 110.664 487.762 110.664C 492.882 110.664 497.234 112.456 500.818 116.04C 504.402 119.368 506.194 123.592 506.194 128.712C 506.194 133.832 504.402 138.184 500.818 141.768C 497.234 145.352 492.882 147.144 487.762 147.144C 482.642 147.144 478.29 145.352 474.706 141.768C 471.378 138.184 469.714 133.832 469.714 128.712ZM 623.814 253.512C 625.862 254.024 626.886 255.048 626.886 256.584L 626.886 260.424C 626.886 261.96 625.094 264.52 621.51 268.104C 618.182 271.688 614.47 274.76 610.374 277.32C 600.902 283.976 591.686 287.304 582.726 287.304C 574.022 287.304 566.47 286.152 560.07 283.848C 553.67 281.288 548.038 277.704 543.174 273.096C 532.422 262.856 527.046 249.928 527.046 234.312C 527.046 218.44 533.702 204.104 547.014 191.304C 560.582 177.992 575.942 171.336 593.094 171.336C 605.126 171.336 613.702 172.872 618.822 175.944C 622.15 179.272 623.814 183.112 623.814 187.464C 623.814 191.56 622.534 195.4 619.974 198.984C 617.414 202.312 614.086 203.976 609.99 203.976C 605.894 203.976 602.694 202.696 600.39 200.136C 598.086 197.32 595.91 194.76 593.862 192.456C 589.254 187.336 583.494 184.776 576.582 184.776C 571.462 184.776 567.11 188.616 563.526 196.296C 560.454 202.952 558.918 210.76 558.918 219.72C 558.918 228.68 560.07 236.104 562.374 241.992C 564.678 247.88 567.622 252.616 571.206 256.2C 577.862 262.856 585.414 266.184 593.862 266.184C 602.31 266.184 608.71 264.776 613.062 261.96C 617.414 259.144 620.998 256.328 623.814 253.512ZM 668.454 213.576C 668.966 213.576 670.63 213.576 673.446 213.576C 676.518 213.32 679.846 213.064 683.43 212.808C 691.622 212.552 697.51 212.168 701.094 211.656C 703.398 211.4 704.55 209.992 704.55 207.432C 704.55 204.616 704.294 201.672 703.782 198.6C 703.27 195.528 702.374 192.84 701.094 190.536C 698.278 184.904 694.566 182.088 689.958 182.088C 685.606 182.088 682.15 183.368 679.59 185.928C 677.03 188.232 674.854 191.048 673.062 194.376C 669.99 201.032 668.454 207.432 668.454 213.576ZM 729.126 220.488C 713.766 221.768 693.542 222.792 668.454 223.56C 668.454 239.176 672.806 250.696 681.51 258.12C 688.166 263.496 695.334 266.184 703.014 266.184C 710.95 266.184 717.094 264.776 721.446 261.96C 725.798 259.144 729.382 256.328 732.198 253.512C 734.246 254.024 735.27 255.432 735.27 257.736C 735.27 260.04 734.758 261.96 733.734 263.496C 732.966 264.776 731.302 266.824 728.742 269.64C 726.182 272.2 722.982 274.76 719.142 277.32C 709.414 283.976 700.07 287.304 691.11 287.304C 682.15 287.304 674.47 286.152 668.07 283.848C 661.67 281.288 656.038 277.704 651.174 273.096C 640.678 263.112 635.43 250.184 635.43 234.312C 635.43 217.928 641.062 203.592 652.326 191.304C 664.358 178.248 677.414 171.72 691.494 171.72C 706.598 171.72 718.118 176.2 726.054 185.16C 732.71 192.328 736.038 200.648 736.038 210.12C 736.038 212.936 735.398 215.368 734.118 217.416C 732.838 219.464 731.174 220.488 729.126 220.488ZM 802.128 131.016C 801.616 132.552 801.232 134.6 800.976 137.16C 800.976 139.72 800.976 159.048 800.976 195.144L 800.976 252.36C 800.976 259.784 801.744 265.416 803.28 269.256C 804.048 271.048 805.968 272.456 809.04 273.48C 812.368 274.504 815.696 275.016 819.024 275.016C 839.76 275.016 854.992 269.256 864.72 257.736C 874.448 245.96 879.312 227.656 879.312 202.824C 879.312 178.76 873.296 160.072 861.264 146.76C 850 134.216 834.64 127.944 815.184 127.944C 812.112 127.944 809.296 128.072 806.736 128.328C 804.432 128.584 802.896 129.48 802.128 131.016ZM 783.696 118.344C 794.704 118.344 807.632 118.088 822.48 117.576C 851.92 117.576 875.472 124.744 893.136 139.08C 910.8 153.928 919.632 174.152 919.632 199.752C 919.632 228.424 910.032 250.184 890.832 265.032C 873.424 278.856 850 285.768 820.56 285.768C 796.24 285.768 771.792 285.768 747.216 285.768C 746.704 285 746.448 283.464 746.448 281.16C 746.448 278.856 746.704 277.32 747.216 276.552C 748.24 276.552 750.416 276.296 753.744 275.784C 759.376 275.016 762.704 273.736 763.728 271.944C 765.008 268.872 765.648 260.936 765.648 248.136L 765.648 154.824C 765.648 142.536 765.008 134.6 763.728 131.016C 761.936 128.456 756.432 127.176 747.216 127.176C 746.704 126.152 746.448 124.488 746.448 122.184C 746.448 119.88 746.704 118.344 747.216 117.576C 753.104 118.088 759.248 118.344 765.648 118.344L 783.696 118.344ZM 986.525 182.088C 975.005 182.088 968.605 191.56 967.325 210.504C 966.813 215.624 966.557 220.744 966.557 225.864C 966.557 230.984 966.941 236.616 967.709 242.76C 968.733 248.648 970.397 254.024 972.701 258.888C 977.565 270.408 984.093 276.168 992.285 276.168C 1004.32 276.168 1011.1 266.824 1012.64 248.136C 1012.89 243.272 1013.02 238.28 1013.02 233.16C 1013.02 228.04 1012.51 222.408 1011.49 216.264C 1010.46 210.12 1008.8 204.616 1006.49 199.752C 1001.63 187.976 994.973 182.088 986.525 182.088ZM 989.597 171.72C 998.301 171.72 1006.24 173.128 1013.41 175.944C 1020.83 178.76 1027.23 182.728 1032.61 187.848C 1043.61 198.6 1049.12 212.04 1049.12 228.168C 1049.12 244.04 1043.36 257.864 1031.84 269.64C 1020.83 281.16 1006.88 286.92 989.981 286.92C 972.317 286.92 957.981 281.416 946.973 270.408C 935.965 259.4 930.461 245.96 930.461 230.088C 930.461 214.472 936.093 200.776 947.357 189C 958.621 177.48 972.701 171.72 989.597 171.72ZM 1153.69 253.512C 1155.74 254.024 1156.76 255.048 1156.76 256.584L 1156.76 260.424C 1156.76 261.96 1154.97 264.52 1151.38 268.104C 1148.06 271.688 1144.35 274.76 1140.25 277.32C 1130.78 283.976 1121.56 287.304 1112.6 287.304C 1103.9 287.304 1096.35 286.152 1089.94 283.848C 1083.54 281.288 1077.91 277.704 1073.05 273.096C 1062.3 262.856 1056.92 249.928 1056.92 234.312C 1056.92 218.44 1063.58 204.104 1076.89 191.304C 1090.46 177.992 1105.82 171.336 1122.97 171.336C 1135 171.336 1143.58 172.872 1148.7 175.944C 1152.02 179.272 1153.69 183.112 1153.69 187.464C 1153.69 191.56 1152.41 195.4 1149.85 198.984C 1147.29 202.312 1143.96 203.976 1139.87 203.976C 1135.77 203.976 1132.57 202.696 1130.26 200.136C 1127.96 197.32 1125.79 194.76 1123.74 192.456C 1119.13 187.336 1113.37 184.776 1106.46 184.776C 1101.34 184.776 1096.99 188.616 1093.4 196.296C 1090.33 202.952 1088.79 210.76 1088.79 219.72C 1088.79 228.68 1089.94 236.104 1092.25 241.992C 1094.55 247.88 1097.5 252.616 1101.08 256.2C 1107.74 262.856 1115.29 266.184 1123.74 266.184C 1132.19 266.184 1138.58 264.776 1142.94 261.96C 1147.29 259.144 1150.87 256.328 1153.69 253.512ZM 1261.31 174.792L 1270.14 174.792C 1272.44 174.792 1282.04 174.408 1298.94 173.64C 1299.7 174.92 1299.96 176.584 1299.7 178.632C 1299.45 180.68 1298.94 181.96 1298.17 182.472C 1286.65 184.008 1278.84 186.184 1274.74 189C 1270.9 191.816 1266.04 196.04 1260.15 201.672C 1254.27 207.048 1247.48 213.192 1239.8 220.104C 1250.81 232.904 1258.62 241.864 1263.22 246.984C 1268.09 251.848 1272.18 256.2 1275.51 260.04C 1279.1 263.88 1282.3 266.952 1285.11 269.256C 1287.93 271.304 1290.49 272.84 1292.79 273.864C 1295.87 275.144 1300.22 275.784 1305.85 275.784C 1306.62 277.32 1306.87 278.984 1306.62 280.776C 1306.36 282.312 1306.11 283.208 1305.85 283.464C 1300.47 285.512 1292.92 286.536 1283.19 286.536C 1266.81 286.536 1254.26 281.544 1245.56 271.56C 1236.86 262.856 1226.87 251.464 1215.61 237.384C 1215.1 236.872 1214.71 236.488 1214.46 236.232C 1214.46 235.976 1213.82 235.208 1212.54 233.928L 1212.54 248.136C 1212.54 260.936 1212.92 268.36 1213.69 270.408C 1214.46 272.2 1215.48 273.48 1216.76 274.248C 1218.3 274.76 1219.83 275.272 1221.37 275.784C 1224.18 276.296 1227.26 276.552 1230.59 276.552C 1231.1 277.576 1231.35 279.24 1231.35 281.544C 1231.35 283.848 1231.1 285.384 1230.59 286.152C 1217.79 284.872 1206.14 284.232 1195.64 284.232C 1185.4 284.232 1173.88 284.872 1161.08 286.152C 1160.57 285.384 1160.31 283.848 1160.31 281.544C 1160.31 279.24 1160.57 277.576 1161.08 276.552C 1166.46 276.552 1170.42 276.04 1172.98 275.016C 1175.54 273.736 1176.95 272.712 1177.21 271.944C 1178.49 269.384 1179.13 266.184 1179.13 262.344C 1179.38 258.504 1179.51 253.768 1179.51 248.136L 1179.51 143.688C 1179.51 138.056 1179.13 134.472 1178.36 132.936C 1177.59 131.144 1176.44 129.992 1174.9 129.48C 1173.62 128.968 1172.22 128.584 1170.68 128.328C 1167.1 127.304 1164.41 126.792 1162.62 126.792C 1162.11 126.792 1161.72 125.64 1161.46 123.336C 1161.46 120.776 1161.85 119.24 1162.62 118.728C 1179.77 116.936 1194.75 113.992 1207.55 109.896C 1209.85 109.128 1211.13 108.744 1211.38 108.744C 1213.18 109.256 1214.46 110.792 1215.22 113.352C 1214.71 116.424 1214.2 119.368 1213.69 122.184C 1212.92 126.024 1212.54 131.656 1212.54 139.08L 1212.15 225.096C 1216.25 223.56 1222.65 219.208 1231.35 212.04C 1240.06 204.616 1245.82 199.24 1248.63 195.912C 1251.7 192.584 1253.24 190.28 1253.24 189C 1253.24 187.464 1252.6 186.44 1251.32 185.928C 1250.04 185.16 1248.5 184.52 1246.71 184.008C 1243.64 182.984 1240.44 182.472 1237.11 182.472C 1236.6 181.192 1236.35 179.528 1236.35 177.48C 1236.6 175.432 1237.11 174.152 1237.88 173.64C 1241.98 173.896 1245.95 174.152 1249.79 174.408C 1253.62 174.664 1257.47 174.792 1261.31 174.792Z"/>
</defs>
</svg>
