<svg width="128" height="128" viewBox="0 0 128 128" version="1.1" xmlns="http://www.w3.org/2000/svg" xmlns:xlink="http://www.w3.org/1999/xlink">
<title>Group 8</title>
<desc>Created using Figma</desc>
<g id="Canvas" transform="matrix(0.376471 0 0 0.376471 -5444.14 -109.553)">
<g id="Group 8">
<g id="Rectangle">
<use xlink:href="#path0_fill" transform="translate(14461 291)" fill="#2A324B"/>
</g>
<g id="N">
<use xlink:href="#path1_fill" transform="translate(14536 259)" fill="#FFFFFF"/>
</g>
</g>
</g>
<defs>
<path id="path0_fill" d="M 0 0L 340 0L 340 340L 0 340L 0 0Z"/>
<path id="path1_fill" d="M 9.216 126.792C 8.448 126.792 8.064 125.384 8.064 122.568C 8.064 119.496 8.32 117.704 8.832 117.192C 12.928 117.448 17.28 117.832 21.888 118.344C 26.496 118.856 32.128 119.112 38.784 119.112C 45.696 119.112 54.528 118.472 65.28 117.192C 69.888 127.688 88.832 152.648 122.112 192.072C 130.56 202.312 138.624 212.296 146.304 222.024C 146.816 221.256 147.072 219.848 147.072 217.8L 147.072 164.424C 147.072 149.832 146.176 138.952 144.384 131.784C 142.592 128.2 135.68 126.408 123.648 126.408C 123.392 126.408 123.136 125.128 122.88 122.568C 122.88 120.008 123.136 118.088 123.648 116.808C 129.536 117.32 134.656 117.832 139.008 118.344C 143.616 118.856 148.864 119.112 154.752 119.112C 160.64 119.112 171.264 118.344 186.624 116.808C 186.88 117.576 187.008 119.112 187.008 121.416C 187.008 123.72 186.624 125.512 185.856 126.792C 179.456 126.792 174.464 127.432 170.88 128.712C 167.552 129.992 165.632 131.144 165.12 132.168C 164.608 133.192 164.224 134.984 163.968 137.544C 163.712 140.104 163.456 142.92 163.2 145.992C 162.688 152.136 162.432 158.024 162.432 163.656L 162.432 249.672C 162.432 263.496 162.816 275.4 163.584 285.384C 163.072 285.896 162.048 286.152 160.512 286.152L 157.056 286.152C 154.496 286.152 151.936 284.232 149.376 280.392L 46.08 153.288L 46.08 245.064C 46.08 255.304 46.976 263.496 48.768 269.64C 50.048 272.712 55.68 274.888 65.664 276.168C 67.712 276.424 68.992 276.552 69.504 276.552C 70.272 277.832 70.656 279.624 70.656 281.928C 70.656 283.976 70.528 285.384 70.272 286.152C 54.912 284.616 44.288 283.848 38.4 283.848C 32.512 283.848 27.264 284.104 22.656 284.616C 18.304 285.128 13.184 285.64 7.296 286.152C 6.784 284.872 6.528 282.952 6.528 280.392C 6.784 277.832 7.04 276.552 7.296 276.552C 12.672 276.552 17.28 275.784 21.12 274.248C 24.96 272.712 27.264 271.176 28.032 269.64C 29.824 265.544 30.72 257.096 30.72 244.296L 30.72 154.824C 30.72 140.232 28.16 131.912 23.04 129.864C 18.432 127.816 13.824 126.792 9.216 126.792Z"/>
</defs>
</svg>
